<?xml version="1.0" encoding="UTF-8"?>
<svg id="Camada_2" data-name="Camada 2" xmlns="http://www.w3.org/2000/svg" viewBox="0 0 58.37 64.61">
  <defs>
    <style>
      .cls-1 {
        fill: #00abc7;
      }

      .cls-2 {
        fill: #13216a;
      }
    </style>
  </defs>
  <g id="Camada_1-2" data-name="Camada 1">
    <g>
      <path class="cls-1" d="M55.03,49.28h-.06s-.06-.01-.06-.05c0-.05,0-.11.02-.16.02-.12.13-.21.26-.2.28.01.54.05.8.12.25.07.26.16.04.3-.27.16-.55.18-.85.05-.04-.02-.09-.03-.15-.04Z"/>
      <path class="cls-2" d="M38.4,10.39c1.06-.2,1.57-1.02,1.76-1.98.54-2.68,1.11-5.37,1.7-8.08.1-.45.19-.45.29,0l1.7,8.57c.14.72.72,1.31,1.47,1.48,2.89.65,5.75,1.21,8.58,1.67.82.14.82.28,0,.45-2.64.52-5.39,1.04-8.23,1.54-1.16.2-1.72.8-1.97,1.92-.6,2.7-1.14,5.3-1.62,7.8-.17.87-.34.87-.49,0-.54-2.94-1.09-5.66-1.62-8.16-.19-.88-.81-1.42-1.86-1.62-3.07-.58-5.94-1.16-8.61-1.73-.31-.07-.31-.13,0-.18,2.88-.54,5.85-1.1,8.9-1.67h0Z"/>
      <path class="cls-1" d="M31.21,64.61h-2.42c-5.09-.4-9.79-1.88-14.12-4.45-4.03-2.4-7.21-5.18-9.53-8.37C1.99,47.48.28,42.38,0,36.49v-1.91c.24-7.42,2.82-13.72,7.75-18.92,5.11-5.39,11.66-8.64,19.66-9.75.61-.09,1.34-.04,2.17.13.09.02.15.11.13.2,0,.03-.02.05-.04.07-.14.15-.31.24-.51.26-2.55.3-4.88.85-7,1.65-.04.01-.05.04-.04.08h0s.04.06.09.05c4.02-1.04,8.04-1.33,12.07-.89.03,0,.04,0,.04-.04t0,0s0,.05-.04.05c-3.4-.12-6.59.19-9.55.91-7.62,1.86-13.72,6-18.28,12.43-.11.16-.15.32-.13.51.02.15-.01.29-.09.42-2.38,3.66-3.69,7.67-3.92,12.03-.06,1.22-.15,2.43-.26,3.64-.14,1.53.16,3.03.36,4.54.1.77.64,1.1.46,2.01,0,.05.01.08.06.09.01,0,.03,0,.04,0s.02-.03.02-.04c.05-.59-.02-1.16-.21-1.69-.22-.62,0-1.23-.11-1.87-.03-.18.04-.24.22-.17.05.02.08.05.09.1.04.24.06.24.04,0-.39-4.52.25-9.05,1.91-13.61,2.58-7.09,7.44-12.2,14.57-15.34.05-.02.09-.01.12.03l.11.12s0,.03,0,.04c-.81.48-1.57,1.01-2.29,1.58-.08.06-.11.14-.1.24.03.19.12.22.29.1.1-.07.22-.12.36-.12.16,0,.17.04.04.12-2.86,1.82-6.18,4.37-7.58,7.35-.27.58-.14.68.4.32l2.44-1.64c.07-.05.14-.05.2,0l.14.11c.05.04.06.12.01.17,0,.01-.02.02-.04.03-.28.14-.42.24-.43.33-.02.33.07.37.28.1.72-.93,1.67-1.63,2.84-2.09,0,0,0,0,.01,0h0c-.9.84-1.77,1.73-2.62,2.65-.56.61-1.12,1.19-1.68,1.73-.6.58-1.11,1.18-1.52,1.8-.85,1.27-1.49,2.49-1.93,3.66-1.18,3.22-2.19,6.49-2.09,9.96.18,6.22,2.5,11.47,6.97,15.71.09.09.2.14.34.14.22,0,.41.09.56.25.59.64,1.23,1.16,1.9,1.57,3.79,2.28,8.02,3.75,12.69,4.4,1.29.18,2.65.04,3.98.15.74.05,1.52-.02,2.35-.24,1.01-.26,2.02-.51,3.04-.77,1.39-.35,2.92-.91,4.6-1.72,1.48-.71,2.79-1.52,3.92-2.41,1.68-1.33,3.01-2.56,3.99-3.7.71-.83,1.42-1.65,2.14-2.44.59-.64.66-.59.22.16-1.86,3.2-4.95,6.01-8.21,8.35-.06.05-.08.1-.03.17h0c.04.05.08.06.13.03,3.51-2.07,6.28-4.97,9.11-7.99.05-.05.14-.06.19-.01.01.01.03.03.04.05l.07.16c.06.14.05.3-.04.43-1.91,2.82-4.23,5.19-6.98,7.14-.09.06-.09.13-.03.21l.08.1s.04.01.05,0c.56-.62,1.15-.86,1.75-.75.11.02.22,0,.31-.06,2.77-1.82,5.07-4.54,7.1-7.1.04-.05.08-.05.13-.03h0s.05.06.03.1c-2.55,4.5-6.15,8-10.81,10.5-4.57,2.47-9.51,3.84-14.81,4.12v.03ZM14.57,11.49s-.06-.05-.11-.02c-4.72,2.9-8.29,6.8-10.7,11.71-.02.05,0,.09.04.11h0c.06.03.11.02.14-.04,2.54-4.73,6.22-8.52,10.69-11.6.02-.01.02-.04,0-.06l-.07-.09h0Z"/>
      <path class="cls-1" d="M20.82,10.23c3.17-1.49,6.97-2.07,10.31-1.75.08,0,.11.05.11.12v.12s-.01.02-.03.02c-3.55-.07-6.99.47-10.33,1.65-.05.01-.09,0-.11-.04h0c-.02-.05,0-.09.04-.12h0Z"/>
      <path class="cls-1" d="M55.69,23.46c-.59-1.62-1.37-3.17-2.3-4.66-.05-.08-.02-.18.06-.23l.11-.06c.11-.07.26-.05.36.05,1.1,1.15,1.93,2.51,2.49,4.08.07.2.14.2.2,0,.05-.17.01-.34-.11-.49-.11-.14-.14-.33-.07-.5.18-.42.19-.81.01-1.17,0-.01,0-.03.01-.03h.14s.07.01.07.05c-.04.65.41.96.62,1.54,1.43,4.11,1.35,8.19.3,12.37-.31,1.25-.74,2.41-1.27,3.5-1.78,3.66-4.03,6.89-6.76,9.68-2.97,3.03-6.79,4.84-10.77,6.45-2.83,1.15-5.94,1.8-9.32,1.97-1.89.09-3.57-.18-5.4-.3-.76-.05-1.49-.18-2.19-.38-3.65-1.06-6.77-2.44-9.34-4.14-.63-.41-1.19-.97-1.7-1.66-.22-.3-.18-.34.12-.12,3.54,2.61,7.73,5.19,12.2,4.9.01,0,.02,0,.02-.02v-.14c0-.06-.04-.09-.11-.09-1.75-.03-3.49-.89-5.14-1.42-.06-.02-.09-.06-.06-.12h0s.04-.05.07-.04c4.2,1.32,8.31,1.84,12.34,1.54.8-.05,1.62-.18,2.47-.37.9-.2,1.73-.37,2.49-.54.93-.2,1.88-.49,2.86-.89.99-.4,2-.7,3.03-.92.54-.12,1.04-.3,1.54-.58.19-.1.17-.15-.04-.16-.4,0-.76.08-1.05.27-.16.1-.32.12-.49.04l-.27-.12c-.15-.06-.31-.07-.46-.01-1.88.65-3.83.93-5.81,1.5-4.69,1.33-9.54,1.16-14.56-.53-.08-.03-.11-.07-.09-.16l.04-.12s.02-.02.04-.01c2.02.69,4.07,1.03,6.15,1.01.15,0,.24-.07.25-.22.02-.16.12-.25.29-.26.46-.03.87-.13,1.22-.31,1-.54.94-.93-.17-1.19-1.69-.38-3.28-.79-4.77-1.22-2.31-.68-4.43-1.75-6.38-3.24-.05-.04-.04-.07.02-.09.02,0,.04,0,.06,0,4.24,2.36,8.29,3.61,12.16,3.74,3.22.1,6.63-.68,10.26-2.34.23-.11.48-.16.74-.14.17,0,.33-.02.48-.09.67-.29,1.36-.58,2.07-.87.63-.26,1.21-.58,1.74-.93.61-.42,1.39-1.07,2.06-1.37.33-.15.74-.45,1.23-.91,1.42-1.34,2.78-2.82,4.08-4.46,1.18-1.48,2.06-3.26,2.64-5.34.61-2.19.97-4.14,1.09-5.85.16-2.44-.64-4.9-2.43-7.37-.12-.16-.2-.34-.25-.53-.07-.3,0-.33.21-.12,1.22,1.25,2.12,2.69,2.71,4.33,0,.01.02.03.04.02h0l.12-.05c.11-.04.14-.11.1-.21h.02ZM54.33,39.83c-.06-.04-.11-.03-.14.03-.66.91-1.27,1.7-1.83,2.36-.37.45-.34.48.11.09.71-.62,1.35-1.4,1.91-2.33.04-.05.02-.1-.04-.14h0ZM50.76,43.94l-1.39,1.15c-.15.13-.14.16.06.1.59-.17,1.04-.59,1.34-1.26.45-.2.79-.51,1.01-.91.09-.16.06-.19-.09-.07-.37.29-.68.62-.92.99h0ZM47.34,46.83s-.06-.04-.09-.02c-1.46.81-2.93,1.81-4.45,2.53-.12.05-.11.09.02.1.09,0,.16,0,.24-.03,1.53-.66,2.96-1.49,4.27-2.49.04-.03.04-.05.01-.09h0ZM37.84,53.9l1-.2c.29-.06.29-.11,0-.15-.39-.05-.74.02-1.06.22-.22.14-.21.19.06.14ZM27.97,55.17c2.14.11,4.51-.3,6.63-.72.02,0,.03-.01.03-.03s0-.03,0-.04c-.01-.03-.04-.03-.07-.03-2.27.26-4.53.43-6.77.51-.05,0-.09.03-.11.07-.03.05,0,.11.11.17.06.04.13.06.2.06Z"/>
      <path class="cls-1" d="M15.75,49.76c-1.07-.51-2.67-1.48-3.31-2.53-.17-.27-.12-.31.14-.11,1.91,1.49,3.8,2.68,5.98,3.66.41.18.4.23-.05.14-.1-.03-.21-.03-.31-.03-.12,0-.24-.01-.35-.07-.69-.37-1.38-.72-2.09-1.06Z"/>
      <path class="cls-1" d="M14.17,49.25c.53.33,1.04.67,1.54,1.02.27.19.24.24-.07.14-.59-.18-1.11-.52-1.58-1.04-.25-.28-.21-.32.11-.12Z"/>
    </g>
  </g>
</svg>